<?xml version="1.0" encoding="utf-8"?>
<!-- Generator: Adobe Illustrator 26.3.1, SVG Export Plug-In . SVG Version: 6.00 Build 0)  -->
<svg version="1.1" id="圖層_1" xmlns="http://www.w3.org/2000/svg" xmlns:xlink="http://www.w3.org/1999/xlink" x="0px" y="0px"
	 viewBox="0 0 31 31" style="enable-background:new 0 0 31 31;" xml:space="preserve">
<style type="text/css">
	.st0{fill:url(#SVGID_1_);}
	.st1{fill:url(#SVGID_00000126324837833387585710000011734837143370624180_);}
	.st2{fill:url(#SVGID_00000064316992558851208930000014936553354287337129_);}
	.st3{fill:url(#SVGID_00000177458309437437076330000003703376101292275091_);}
</style>
<g>
	
		<linearGradient id="SVGID_1_" gradientUnits="userSpaceOnUse" x1="4.1" y1="31.7922" x2="4.1" y2="3.0304" gradientTransform="matrix(1 0 0 -1 0 32)">
		<stop  offset="0" style="stop-color:#8EE4FF"/>
		<stop  offset="1" style="stop-color:#3495FF"/>
	</linearGradient>
	<path class="st0" d="M4.1,9.7L4.1,9.7L4.1,9.7c-1.1,0-1.9,0.9-1.9,1.9l0,0v7.5c0,1,0.8,1.9,1.9,1.9S6,20.2,6,19.1l0,0v-7.5
		C6,10.6,5.1,9.7,4.1,9.7z"/>
	
		<linearGradient id="SVGID_00000062872761913066774460000011973671326448974006_" gradientUnits="userSpaceOnUse" x1="15.55" y1="31.7922" x2="15.55" y2="3.0304" gradientTransform="matrix(1 0 0 -1 0 32)">
		<stop  offset="0" style="stop-color:#8EE4FF"/>
		<stop  offset="1" style="stop-color:#3495FF"/>
	</linearGradient>
	<path style="fill:url(#SVGID_00000062872761913066774460000011973671326448974006_);" d="M7.1,23.5c0,0.8,0.7,1.5,1.5,1.5h1.7v4.2
		c0,1,0.8,1.9,1.9,1.9c1,0,1.9-0.8,1.9-1.9l0,0V25H17v4.2c0,1,0.8,1.9,1.9,1.9s1.9-0.8,1.9-1.9l0,0V25h1.7c0.8,0,1.5-0.7,1.5-1.5
		V9.8H7.1V23.5z"/>
	
		<linearGradient id="SVGID_00000096019278433333984100000011080459400806657668_" gradientUnits="userSpaceOnUse" x1="26.9" y1="31.7922" x2="26.9" y2="3.0304" gradientTransform="matrix(1 0 0 -1 0 32)">
		<stop  offset="0" style="stop-color:#8EE4FF"/>
		<stop  offset="1" style="stop-color:#3495FF"/>
	</linearGradient>
	<path style="fill:url(#SVGID_00000096019278433333984100000011080459400806657668_);" d="M26.9,9.7L26.9,9.7L26.9,9.7
		c-1.1,0-1.9,0.9-1.9,1.9l0,0v7.5c0,1,0.8,1.9,1.9,1.9s1.9-0.8,1.9-1.9l0,0v-7.5C28.8,10.6,28,9.7,26.9,9.7z"/>
	
		<linearGradient id="SVGID_00000000918379641132632300000005919407958459563703_" gradientUnits="userSpaceOnUse" x1="15.5" y1="31.7922" x2="15.5" y2="3.0304" gradientTransform="matrix(1 0 0 -1 0 32)">
		<stop  offset="0" style="stop-color:#8EE4FF"/>
		<stop  offset="1" style="stop-color:#3495FF"/>
	</linearGradient>
	<path style="fill:url(#SVGID_00000000918379641132632300000005919407958459563703_);" d="M19.5,2.7L19.5,2.7L21,0.5
		c0.1-0.1,0.1-0.3-0.1-0.4c-0.1-0.1-0.3,0-0.4,0.1L19,2.5c-2.2-0.9-4.7-0.9-7,0l-1.6-2.3C10.3,0,10.1,0,10,0.1l0,0
		c-0.1,0.1-0.1,0.2,0,0.4l1.6,2.2C9.1,3.7,7.4,6,7.1,8.6h16.8C23.6,6,21.9,3.7,19.5,2.7z M11.9,6.2L11.9,6.2L11.9,6.2
		c-0.5,0-0.9-0.4-0.9-0.9s0.4-0.9,0.9-0.9s0.9,0.4,0.9,0.9C12.9,5.8,12.5,6.2,11.9,6.2z M19.2,6.2L19.2,6.2L19.2,6.2
		c-0.5,0-0.9-0.4-0.9-0.9s0.4-0.9,0.9-0.9s0.9,0.4,0.9,0.9S19.7,6.2,19.2,6.2z"/>
</g>
</svg>
