<?xml version="1.0" encoding="utf-8"?>
<!-- Generator: Adobe Illustrator 26.3.1, SVG Export Plug-In . SVG Version: 6.00 Build 0)  -->
<svg version="1.1" id="圖層_1" xmlns="http://www.w3.org/2000/svg" xmlns:xlink="http://www.w3.org/1999/xlink" x="0px" y="0px"
	 viewBox="0 0 31 31" style="enable-background:new 0 0 31 31;" xml:space="preserve">
<style type="text/css">
	.st0{fill:url(#SVGID_1_);}
	.st1{fill:url(#SVGID_00000066489643189080571720000011263654847281717426_);}
</style>
<g>
	<linearGradient id="SVGID_1_" gradientUnits="userSpaceOnUse" x1="15.5231" y1="0.2078" x2="15.5231" y2="29.5214">
		<stop  offset="0" style="stop-color:#8EE4FF"/>
		<stop  offset="1" style="stop-color:#3495FF"/>
	</linearGradient>
	<path class="st0" d="M25.2,19.7c-1.9-3.3-0.7-7.5,2.6-9.3c-1.4-1.8-3.5-3-5.9-3.1c-2.8,0-4,1.3-5.9,1.3c-2,0-3.5-1.3-5.9-1.3
		C7.4,7.4,5,8.9,3.6,11.1c-2.2,3.5-1.8,10,1.8,15.6c1.3,2,3,4.3,5.3,4.3c2,0,2.6-1.3,5.4-1.3c2.8,0,3.3,1.3,5.3,1.3
		c2.3,0,4.1-2.5,5.4-4.5c0.8-1.2,1.5-2.5,2-3.8C27.3,22.2,26,21.1,25.2,19.7z"/>
	
		<linearGradient id="SVGID_00000131328013981469837440000005505423763613601413_" gradientUnits="userSpaceOnUse" x1="18.1525" y1="0.2078" x2="18.1525" y2="29.5214">
		<stop  offset="0" style="stop-color:#8EE4FF"/>
		<stop  offset="1" style="stop-color:#3495FF"/>
	</linearGradient>
	<path style="fill:url(#SVGID_00000131328013981469837440000005505423763613601413_);" d="M19.8,5c1.2-1.4,1.7-3.2,1.5-5
		c-1.8,0.2-3.5,1.1-4.7,2.6c-1.2,1.3-1.8,3.1-1.6,4.9C16.9,7.4,18.7,6.5,19.8,5z"/>
</g>
</svg>
